<svg width="49" height="49" viewBox="0 0 49 49" fill="none" xmlns="http://www.w3.org/2000/svg">
<path d="M24.5 0C10.9694 0 0 10.9681 0 24.5C0 38.0306 10.9694 49 24.5 49C38.0306 49 49 38.0306 49 24.5C49 10.9694 38.0306 0 24.5 0ZM44.7966 22.2924C42.9942 21.4779 41.1878 20.8237 39.396 20.3032C39.3987 20.2463 39.4039 20.188 39.4039 20.1297C39.4039 18.4399 38.0333 17.0679 36.3421 17.0679C35.0324 17.0679 33.9173 17.8916 33.4802 19.0491C31.4885 18.771 29.5391 18.6372 27.6585 18.6174C27.6506 18.2638 27.6519 17.9181 27.6387 17.5619C27.5764 15.831 27.4479 14.1663 27.2811 12.5996C28.6875 12.3202 29.7456 11.0819 29.7456 9.59473C29.7456 7.90489 28.375 6.53289 26.6838 6.53289C26.5871 6.53289 26.4905 6.53819 26.3951 6.54878C26.2296 5.65486 26.0614 4.8457 25.9064 4.13719C35.7925 4.81127 43.7451 12.5162 44.7966 22.2924ZM24.5 4.08289C24.545 4.08289 24.5887 4.08687 24.6364 4.08687C24.8139 4.88808 25.0099 5.84292 25.2059 6.9143C24.2629 7.43608 23.6233 8.44124 23.6233 9.59473C23.6233 11.0581 24.6497 12.2805 26.023 12.5837C26.1726 13.9915 26.2918 15.4853 26.3594 17.0401C22.6327 12.0752 17.9565 9.00408 12.5056 7.9817C15.872 5.5317 20.0158 4.08289 24.5 4.08289ZM11.2025 9.01467C17.2109 9.80795 22.1745 13.03 26.0375 18.6279C22.389 18.7074 19.0358 19.1802 16.1819 19.7814C15.3317 19.9602 14.5119 20.1536 13.7187 20.3549C13.1995 19.3987 12.1904 18.7498 11.0263 18.7498C9.33516 18.7498 7.96316 20.1218 7.96316 21.8129C7.96316 21.9162 7.96846 22.0169 7.98038 22.1162C6.44946 22.6711 5.14367 23.2088 4.1054 23.671C4.33848 17.8135 7.04143 12.5904 11.2025 9.01467ZM4.09746 25.0337C5.17149 24.5464 6.61235 23.9385 8.35649 23.3121C8.88092 24.2431 9.87814 24.8761 11.0263 24.8761C12.7175 24.8761 14.0882 23.5054 14.0882 21.8143C14.0882 21.7295 14.0829 21.6448 14.0762 21.564C17.6903 20.6489 21.9017 19.9377 26.4216 19.8622C26.4229 24.8086 25.8362 30.1602 24.0895 35.1582C23.9372 35.1343 23.7822 35.1198 23.622 35.1198C21.9308 35.1198 20.5601 36.4891 20.5601 38.1816C20.5601 39.1192 20.9826 39.9575 21.6461 40.5204C20.9058 41.7997 20.0622 43.0273 19.1007 44.1914C10.6105 41.8659 4.33187 34.2033 4.09746 25.0337ZM24.5 44.9171C23.0962 44.9171 21.7269 44.7741 20.4039 44.5039C21.2435 43.4405 22.0142 42.3082 22.7095 41.1031C22.9982 41.1918 23.3028 41.2408 23.6206 41.2408C25.3118 41.2408 26.6825 39.8688 26.6825 38.1789C26.6825 37.0798 26.1024 36.1183 25.231 35.578C26.7182 31.3547 27.534 26.5381 27.6532 21.2263C28.7617 23.1955 29.7615 25.3926 30.6515 27.8227C30.7415 28.0691 30.8276 28.3127 30.9124 28.5591C29.9734 29.0822 29.3364 30.0847 29.3364 31.2355C29.3364 32.9267 30.7071 34.2987 32.3983 34.2987C32.4632 34.2987 32.5281 34.2921 32.5903 34.2881C33.4008 37.6439 33.8405 40.5919 34.0682 42.5333C31.2156 44.0537 27.9591 44.9171 24.5 44.9171ZM35.2244 41.8738C34.9754 39.8992 34.5344 37.1089 33.7742 33.9729C34.7768 33.4683 35.4628 32.4354 35.4628 31.2382C35.4628 29.5483 34.0921 28.1763 32.4009 28.1763C32.295 28.1763 32.189 28.1816 32.0844 28.1935C31.9957 27.9406 31.9056 27.6863 31.8129 27.4307C30.7892 24.6218 29.5947 22.1003 28.2531 19.8675C29.9006 19.9033 31.5851 20.0304 33.2869 20.2635C33.3571 21.8937 34.696 23.1955 36.3434 23.1955C37.5472 23.1955 38.5855 22.4989 39.0874 21.4872C41.0236 22.05 42.9664 22.7757 44.8986 23.6895C44.9092 23.9597 44.9198 24.2285 44.9198 24.5026C44.9171 31.8407 41.0395 38.2756 35.2244 41.8738Z" fill="black"/>
</svg>
